<svg xmlns="http://www.w3.org/2000/svg" width="139" height="165" viewBox="0 0 139 165"><g transform="translate(-928.5 -490.5)"><g transform="translate(-4.985 0.21)"><g transform="translate(953.985 490.79)"><rect width="36.3" height="2.63" rx="1.31" transform="translate(1.65 10.171)" fill="#fff"/><rect width="39.6" height="2.62" rx="1.31" transform="translate(0 27.841)" fill="#fff"/><rect width="37.6" height="2.63" rx="1.31" transform="translate(1 37.421)" fill="#fff"/><rect width="31.7" height="2.62" rx="1.23" transform="translate(3.95 19.011)" fill="#fff"/><path d="M20.08,11.49l.71,27.82c0,1.16.09,2.3.05,3.53a16.19,16.19,0,0,1-.55,3.63,11.11,11.11,0,0,1-4.23,6.19A14.12,14.12,0,0,1,9,55.06c-1.27.1-2.38.1-3.55.14l-3.48.1a1.5,1.5,0,1,1-.08-3h.08l3.48.1c1.15,0,2.35.09,3.4.06a11.81,11.81,0,0,0,6-1.64,9,9,0,0,0,3.72-4.89,14.22,14.22,0,0,0,.67-3.2c.11-1.09.1-2.27.14-3.42l.71-27.82h0Z" transform="translate(-0.27 0.001)" fill="#fff"/><path d="M21.72,42a14.1,14.1,0,0,0,6.23,8,16.88,16.88,0,0,0,4.65,1.83c.8.22,1.65.27,2.47.42a18.943,18.943,0,0,0,2.5.12h.15a1.51,1.51,0,1,1-.17,3h-.2c-.92-.17-1.84-.33-2.75-.53a26.8,26.8,0,0,1-2.67-.86,18.47,18.47,0,0,1-4.85-2.75A14.85,14.85,0,0,1,21.72,42Z" transform="translate(-0.27 0.001)" fill="#fff"/><path d="M24.19,9.64a13.6,13.6,0,0,1,2-4.08A8.14,8.14,0,0,1,28,3.79a6.39,6.39,0,0,1,2.57-1.07h.12a1.54,1.54,0,0,1,.51,3,1.75,1.75,0,0,1-.56,0,3.39,3.39,0,0,0-1.6.07,6.46,6.46,0,0,0-1.74.84,12.83,12.83,0,0,0-3.11,3.01Z" transform="translate(-0.27 0.001)" fill="#fff"/><path d="M15,10.67a35.42,35.42,0,0,0-2.23-4.44,16.82,16.82,0,0,0-1.36-1.95A3.74,3.74,0,0,0,9.94,3.06,1.57,1.57,0,0,1,8.87,1.13,1.57,1.57,0,0,1,10.81.06a1.55,1.55,0,0,1,.58.31l.22.19a6.67,6.67,0,0,1,1.74,2.56,18,18,0,0,1,.83,2.51,35.14,35.14,0,0,1,.9,5,.045.045,0,0,1-.08.04Z" transform="translate(-0.27 0.001)" fill="#fff"/></g><g transform="translate(955.015 556.474)"><path d="M22.82,108V80.28a6.83,6.83,0,0,1,6.83-6.83h0a6.83,6.83,0,0,1,6.84,6.83v28.06" transform="translate(-1.3 -65.92)" fill="none" stroke="#fff" stroke-linecap="round" stroke-miterlimit="10" stroke-width="2.16"/><path d="M27.91,85.25a18.91,18.91,0,0,1,3.53,8.11,41.54,41.54,0,0,1,.67,8.88c0,1.48-.09,3-.18,4.42l-.14,2.17a2.59,2.59,0,0,0,.29,1.45,1.76,1.76,0,0,0,2.21.8,1.71,1.71,0,0,0,.83-1,10.24,10.24,0,0,0,.28-1.78v-.21a1.08,1.08,0,0,1,2.14.21,9.75,9.75,0,0,1-.3,2.54,3.91,3.91,0,0,1-7.23.56,4.92,4.92,0,0,1-.58-2.77l.23-2.19c.15-1.44.27-2.88.35-4.32a56,56,0,0,0,0-8.59,26.5,26.5,0,0,0-.71-4.23,17,17,0,0,0-1.49-4h0v-.05S27.9,85.23,27.91,85.25Z" transform="translate(-1.3 -65.92)" fill="#fff"/><path d="M3.66,108V80.28a6.83,6.83,0,0,1,6.83-6.83h0a6.83,6.83,0,0,1,6.83,6.83v28.06" transform="translate(-1.3 -65.92)" fill="none" stroke="#fff" stroke-linecap="round" stroke-miterlimit="10" stroke-width="2.16"/><path d="M8.74,85.25a18.91,18.91,0,0,1,3.53,8.11,40.9,40.9,0,0,1,.67,8.88c0,1.48-.09,3-.17,4.42l-.14,2.17a2.51,2.51,0,0,0,.29,1.45,1.74,1.74,0,0,0,2.2.8,1.71,1.71,0,0,0,.83-1,10.18,10.18,0,0,0,.29-1.78v-.21a1.08,1.08,0,0,1,2.14.21,9.34,9.34,0,0,1-.3,2.54,4,4,0,0,1-1.93,2.3,4.06,4.06,0,0,1-5.3-1.74,4.92,4.92,0,0,1-.58-2.77l.23-2.19c.15-1.44.27-2.88.35-4.32a56,56,0,0,0,0-8.59,26.48,26.48,0,0,0-.7-4.23,17,17,0,0,0-1.49-4h0v-.05Z" transform="translate(-1.3 -65.92)" fill="#fff"/><line x1="37.54" fill="none" stroke="#fff" stroke-linecap="round" stroke-miterlimit="10" stroke-width="2.6"/></g><g transform="translate(1008.924 545.974)"><path d="M72.36,55.77a13.72,13.72,0,0,1,4.08,2,8.37,8.37,0,0,1,1.77,1.75,6.39,6.39,0,0,1,1.07,2.57v.12a1.54,1.54,0,1,1-3,.51,1.5,1.5,0,0,1,0-.56,3.67,3.67,0,0,0-.07-1.6,6.66,6.66,0,0,0-.84-1.75,13.18,13.18,0,0,0-3.01-3.04Z" transform="translate(-55.959 -55.77)" fill="#fff"/><line x2="30.13" transform="translate(5.001 10.6)" fill="none" stroke="#fff" stroke-linecap="round" stroke-linejoin="round" stroke-width="2.4"/><path d="M92.46,67.19a39.59,39.59,0,0,1-2.13,4.65c-.39.74-.81,1.46-1.23,2.19s-.87,1.42-1.33,2.11a50.3,50.3,0,0,1-6.27,7.74c-1.12,1.21-2.41,2.27-3.64,3.36a47.27,47.27,0,0,1-12.71,7.41H65.1a46.23,46.23,0,0,0,8.26-5.1,48,48,0,0,0,3.68-3.14c1.11-1.16,2.27-2.27,3.27-3.53A48.681,48.681,0,0,0,85.75,75a44.7,44.7,0,0,0,3.72-8.65v-.08a1.565,1.565,0,1,1,3,.89Z" transform="translate(-55.959 -55.77)" fill="#fff"/><path d="M56.36,100.21c.82-.84,1.57-1.52,2.38-2.23s1.64-1.34,2.47-2a38.47,38.47,0,0,1,5.34-3.38,26.49,26.49,0,0,1,5.93-2.23,23.26,23.26,0,0,1,6.35-.52,17.94,17.94,0,0,1,6.26,1.5,12.231,12.231,0,0,1,1.45.72,9.58,9.58,0,0,1,1.39.82l1.34.91,1.24,1a41,41,0,0,1,8.19,9.61,1.74,1.74,0,1,1-2.93,1.87h0A40.31,40.31,0,0,0,88.63,97l-1.07-1-1.14-.87a11.88,11.88,0,0,0-1.19-.81A10.7,10.7,0,0,0,84,93.56a15.26,15.26,0,0,0-5.37-1.9,13.45,13.45,0,0,0-5.74.41,20.14,20.14,0,0,0-5.33,2.35,28,28,0,0,0-8.38,8h0a1.81,1.81,0,0,1-3-2,1.51,1.51,0,0,1,.18-.21Z" transform="translate(-55.959 -55.77)" fill="#fff"/></g><g transform="translate(1010.994 601.76)"><line x2="7.78" transform="translate(4.852 14.59)" fill="none" stroke="#fff" stroke-miterlimit="10" stroke-width="2.4"/><line x2="10.28" transform="translate(1.501 29.74)" fill="none" stroke="#fff" stroke-linecap="round" stroke-miterlimit="10" stroke-width="2.83"/><path d="M70,115.34,71.24,167a1.3,1.3,0,1,1-2.6.06V167l1.26-51.7h.08Z" transform="translate(-57.309 -115.3)" fill="#fff"/><path d="M62.6,120.91c.19,1.52.29,3.06.33,4.61a40.26,40.26,0,0,1-.14,4.65,24.61,24.61,0,0,1-.84,4.68,13,13,0,0,1-2.24,4.51,1.3,1.3,0,1,1-2-1.63l.12-.14h0a10.67,10.67,0,0,0,2.28-3.41A21.92,21.92,0,0,0,61.46,130a36.74,36.74,0,0,0,.76-4.48,43.469,43.469,0,0,0,.3-4.57h.08Z" transform="translate(-57.309 -115.3)" fill="#fff"/><path d="M81.09,115.34a34.871,34.871,0,0,1-.11,5.5,33,33,0,0,1-1,5.46,25.4,25.4,0,0,1-2.09,5.26,17.89,17.89,0,0,1-3.72,4.5,1.21,1.21,0,1,1-1.57-1.83l.1-.07h0a15.61,15.61,0,0,0,3.63-3.54,23.821,23.821,0,0,0,2.47-4.66,32.72,32.72,0,0,0,1.5-5.18,35,35,0,0,0,.79-5.44Z" transform="translate(-57.309 -115.3)" fill="#fff"/><path d="M80.22,126.08h4.85a11.16,11.16,0,0,1,11.16,11.16v17.39a11.16,11.16,0,0,1-11.16,11.16h0" transform="translate(-57.309 -115.3)" fill="none" stroke="#fff" stroke-linecap="round" stroke-linejoin="round" stroke-width="2.6"/><path d="M85.31,129.69a46.1,46.1,0,0,1,0,7.05,38.4,38.4,0,0,1-1.17,7,26.81,26.81,0,0,1-2.77,6.69,18.25,18.25,0,0,1-5.15,5.44,1.3,1.3,0,1,1-1.47-2.15l.1-.06h0a15.93,15.93,0,0,0,4.85-4.28,25,25,0,0,0,3.15-6,38.071,38.071,0,0,0,1.77-6.71A45,45,0,0,0,85.31,129.69Z" transform="translate(-57.309 -115.3)" fill="#fff"/><path d="M89.34,134.12a54.7,54.7,0,0,1,0,8.49,47.06,47.06,0,0,1-1.42,8.45,30.331,30.331,0,0,1-3.33,8.06,23.25,23.25,0,0,1-2.7,3.59,20.71,20.71,0,0,1-3.5,2.95,1.57,1.57,0,1,1-1.74-2.61l.12-.07h0a17.24,17.24,0,0,0,3.18-2.21,20.251,20.251,0,0,0,2.67-2.94,28.56,28.56,0,0,0,3.79-7.22,46.19,46.19,0,0,0,2.13-8.08,53.472,53.472,0,0,0,.8-8.41Z" transform="translate(-57.309 -115.3)" fill="#fff"/></g></g><line x2="32" transform="translate(1035 491)" fill="none" stroke="#fff" stroke-linecap="round" stroke-width="1"/><line x2="12" transform="translate(1047 499)" fill="none" stroke="#fff" stroke-linecap="round" stroke-width="1"/><line y2="82" transform="translate(1067 491)" fill="none" stroke="#fff" stroke-linecap="round" stroke-width="1"/><path d="M0,0V12" transform="translate(1059 499)" fill="none" stroke="#fff" stroke-linecap="round" stroke-width="1"/><g transform="translate(1)"><line x2="32" transform="translate(960 655) rotate(180)" fill="none" stroke="#fff" stroke-linecap="round" stroke-width="1"/><line x1="12" transform="translate(936 647)" fill="none" stroke="#fff" stroke-linecap="round" stroke-width="1"/><line y2="82" transform="translate(928 655) rotate(180)" fill="none" stroke="#fff" stroke-linecap="round" stroke-width="1"/><path d="M0,0V12" transform="translate(936 647) rotate(180)" fill="none" stroke="#fff" stroke-linecap="round" stroke-width="1"/></g></g></svg>