<svg xmlns="http://www.w3.org/2000/svg" width="298" height="182" viewBox="0 0 298 182"><g transform="translate(-8449 -995)"><rect width="298" height="182" rx="4" transform="translate(8449 995)" fill="#66635c"/><g transform="translate(8672.658 1174.684) rotate(180)"><path d="M74.122,300.167,62,287.282l8.946-5.982,9.7,10.3Z" transform="translate(0 -200.514)" fill="#dfd4c0"/><path d="M458.143,78.593l3.867-3.638,2.424,2.577-3.867,3.638Zm2.194,10.076a1.772,1.772,0,0,1-2.5-.076l-7.27-7.731a1.769,1.769,0,0,1,.076-2.5l1.288-1.212a1.769,1.769,0,0,1,2.5.079l7.273,7.728a1.768,1.768,0,0,1-.076,2.5Z" transform="translate(-377.118)" fill="#b3ada1"/></g></g></svg>