<svg xmlns="http://www.w3.org/2000/svg" width="246" height="153" viewBox="0 0 246 153"><g transform="translate(-339 -908)"><rect width="246" height="153" transform="translate(339 908)" fill="#e6e4e1"/><g transform="translate(478.211 1000.314) rotate(180)"><path d="M15.524,24.161,0,7.66,11.456,0,23.875,13.2Z" transform="translate(0 7.467)" fill="#dfd4c0"/><path d="M10.322,4.659,15.275,0l3.1,3.3L13.426,7.959Zm2.81,12.9a2.269,2.269,0,0,1-3.206-.1l-9.31-9.9a2.265,2.265,0,0,1,.1-3.2L2.363,2.81a2.265,2.265,0,0,1,3.2.1l9.314,9.9a2.265,2.265,0,0,1-.1,3.2Z" transform="translate(14.043)" fill="#b3ada1"/></g></g></svg>